<svg xmlns="http://www.w3.org/2000/svg" viewBox="0 0 411 91.301">
  <defs>
    <style>
      .cls-1{fill:#e4002b}
    </style>
  </defs>
  <g id="Layer_2" data-name="Layer 2">
    <g id="Layer1">
      <path class="cls-1" d="M138.024 8.424a7.167 7.167 0 0 1 14.334 0V76.95a7.167 7.167 0 0 1-14.334 0ZM399.35 7.736v-.033A5.825 5.825 0 1 1 411 7.67v.033a5.825 5.825 0 1 1-11.65.033Zm10.478-.033v-.03a4.653 4.653 0 1 0-9.305.03v.03a4.653 4.653 0 1 0 9.305-.03Zm-7.063-2.377a.75.75 0 0 1 .737-.77h2.109c1.44 0 2.443.67 2.443 2.009a1.881 1.881 0 0 1-1.205 1.84l.904 1.105a.679.679 0 0 1 .2.536.695.695 0 0 1-.736.703.814.814 0 0 1-.602-.301l-1.406-1.74h-.97v1.304a.736.736 0 1 1-1.474 0Zm2.745 2.176c.67 0 1.038-.335 1.038-.837 0-.535-.402-.837-1.038-.837h-1.272v1.674ZM331.726 74.153l30.3-67.594a9.247 9.247 0 0 1 8.74-5.827 9.728 9.728 0 0 1 9.091 5.827l30.302 67.594a7.754 7.754 0 0 1 .815 3.03 6.718 6.718 0 0 1-6.759 6.876c-3.38 0-5.49-2.01-6.992-5.011l-6.644-15.267h-39.623l-6.877 15.733c-1.522 3.002-3.612 4.545-6.642 4.545a6.567 6.567 0 0 1-6.643-6.643 7.77 7.77 0 0 1 .932-3.263Zm53.376-23.075-14.334-32.981-14.335 32.98ZM89.206 79.093 78.039 67.927a43.081 43.081 0 1 0-10.112 10.112l11.166 11.167a7.15 7.15 0 0 0 10.113-10.113ZM14.302 43.012a28.71 28.71 0 1 1 28.71 28.71 28.742 28.742 0 0 1-28.71-28.71ZM206.932 8.657c0-7.796 10.943-10.276 15.383-3.38l24.707 38.692L271.844 5.16c3.944-6.786 15.267-4.333 15.267 3.496V76.95a7.09 7.09 0 0 1-7.226 7.11 7.015 7.015 0 0 1-6.875-7.11V28.206s-16.885 25.183-20.04 29.748c-3.181 4.603-8.82 4.588-11.912 0l-20.025-29.718v48.83a6.966 6.966 0 0 1-7.11 6.993 6.868 6.868 0 0 1-6.992-6.992Z"/>
    </g>
  </g>
</svg>
